<?xml version="1.0" standalone="no"?><!DOCTYPE svg PUBLIC "-//W3C//DTD SVG 1.1//EN" "http://www.w3.org/Graphics/SVG/1.1/DTD/svg11.dtd"><svg width="16" height="16" viewBox="0 0 16 16" version="1.1" xmlns="http://www.w3.org/2000/svg" xmlns:xlink="http://www.w3.org/1999/xlink"><defs><style type="text/css"><![CDATA[
@font-face { font-family: ifont; src: url("http://at.alicdn.com/t/font_1442373896_4754455.eot?#iefix") format("embedded-opentype"), url("http://at.alicdn.com/t/font_1442373896_4754455.woff") format("woff"), url("http://at.alicdn.com/t/font_1442373896_4754455.ttf") format("truetype"), url("http://at.alicdn.com/t/font_1442373896_4754455.svg#ifont") format("svg"); }

]]></style></defs><g class="transform-group"><g transform="scale(0.015625, 0.015625)"><path d="M832.006 544.004c0 17.668-14.334 32-32.004 32L576 575.996l0 224.012c0 17.664-14.332 31.996-31.996 32l-64.006-0.004c-17.672 0.004-32.002-14.332-32.002-32L447.996 575.996l-224.002 0.008c-17.674 0-32-14.328-32-32.004l0.002-64.002c0-17.67 14.33-32.004 31.998-32L448 447.998l-0.004-224c0.004-17.676 14.332-32.004 32.006-32.004l63.996 0c17.676 0.002 31.998 14.33 32.004 32.004l-0.006 224 224 0c17.676 0 32.01 14.332 32.01 32.004L832.006 544.004z" fill="#272636"></path></g></g></svg>