<?xml version="1.0" standalone="no"?><!DOCTYPE svg PUBLIC "-//W3C//DTD SVG 1.1//EN" "http://www.w3.org/Graphics/SVG/1.1/DTD/svg11.dtd"><svg width="16" height="16" viewBox="0 0 16 16" version="1.1" xmlns="http://www.w3.org/2000/svg" xmlns:xlink="http://www.w3.org/1999/xlink"><defs><style type="text/css"><![CDATA[
@font-face { font-family: ifont; src: url("http://at.alicdn.com/t/font_1442373896_4754455.eot?#iefix") format("embedded-opentype"), url("http://at.alicdn.com/t/font_1442373896_4754455.woff") format("woff"), url("http://at.alicdn.com/t/font_1442373896_4754455.ttf") format("truetype"), url("http://at.alicdn.com/t/font_1442373896_4754455.svg#ifont") format("svg"); }

]]></style></defs><g class="transform-group"><g transform="scale(0.015625, 0.015625)"><path d="M480 284l64 0 0 549.344-64 0 0-549.344ZM329.312 284l64 0 0 549.344-64 0 0-549.344ZM630.656 284l64 0 0 549.344-64 0 0-549.344ZM896 158.656l-125.984 0-46.016 0 0-40.224c0-31.296-28.096-55.776-64-55.776l-296 0c-35.904 0-64 24.512-64 55.776l0 40.224-46.016 0-131.328 0 0 64 67.328 0 0 674.912c0 34.432 28.704 62.432 64 62.432l516 0c35.296 0 64-28 64-62.432l0-674.912 61.984 0L895.968 158.656zM364 126.656l296 0 0 32-296 0L364 126.656zM770.624 895.872c0 0-0.16 0.128-0.608 0.128l-516 1.568 0-674.912 110.016 0 296 0 110.016 0L770.624 895.872z" fill="#272636"></path></g></g></svg>